<?xml version="1.0" standalone="no"?>
<!DOCTYPE svg PUBLIC "-//W3C//DTD SVG 20010904//EN"
 "http://www.w3.org/TR/2001/REC-SVG-20010904/DTD/svg10.dtd">
<svg version="1.0" xmlns="http://www.w3.org/2000/svg"
 width="200.000000pt" height="200.000000pt" viewBox="0 0 200.000000 200.000000"
 preserveAspectRatio="xMidYMid meet">

<g transform="translate(0.000000,200.000000) scale(0.100000,-0.100000)"
fill="#000000" stroke="none">
<path d="M0 1000 l0 -1000 333 0 c246 0 336 3 345 12 7 7 12 9 12 5 0 -4 13 6
30 23 16 16 34 30 40 30 5 0 10 7 10 15 0 8 12 22 26 31 19 13 22 19 12 25 -9
6 -7 9 8 9 20 0 39 24 36 42 -1 4 4 5 12 2 8 -3 20 4 28 15 8 12 17 18 20 15
4 -3 14 8 24 25 10 17 26 34 36 37 10 3 18 9 18 14 0 4 15 24 34 43 19 20 32
38 28 41 -5 6 14 10 31 7 4 0 7 6 7 14 0 8 6 14 13 13 6 -2 11 5 9 15 -2 9 3
17 11 17 7 0 23 11 35 25 12 14 27 25 33 25 5 0 8 4 4 10 -3 5 6 17 20 26 13
9 22 20 19 25 -3 5 1 6 9 3 9 -3 16 3 20 16 3 12 15 24 27 27 13 4 19 11 16
20 -3 8 -1 11 4 8 6 -3 10 1 10 10 0 9 5 13 10 10 6 -3 10 -2 10 4 0 6 12 17
28 25 30 16 22 23 -33 28 l-30 3 -3 315 c-2 335 0 359 44 379 32 14 96 14 127
0 43 -20 47 -45 47 -314 0 -222 2 -254 15 -249 8 4 12 10 9 15 -3 5 -2 9 3 8
21 -4 33 2 33 16 0 8 5 15 11 15 5 0 8 4 4 9 -3 5 4 12 15 16 11 3 20 10 20
14 0 11 60 76 61 65 0 -5 4 1 10 14 5 13 13 20 19 17 5 -3 10 1 10 9 0 9 6 15
13 14 6 -2 11 5 9 15 -2 9 3 17 10 17 7 0 31 16 53 36 22 20 33 33 25 29 -8
-3 -4 3 10 16 14 12 24 26 22 31 -1 5 2 7 8 3 12 -8 42 13 35 25 -2 4 7 12 20
18 23 11 30 23 25 47 -1 6 2 7 6 3 4 -4 13 -3 21 3 10 9 13 80 13 355 l0 344
-1000 0 -1000 0 0 -1000z m671 391 l29 -29 0 -291 c0 -194 -4 -298 -11 -315
-16 -35 -55 -47 -135 -44 l-69 3 -3 323 -2 323 29 30 c25 25 37 29 81 29 44 0
56 -4 81 -29z m393 -213 c12 -17 16 -49 16 -132 0 -137 -6 -146 -97 -146 l-63
0 0 128 c0 157 7 172 80 172 39 0 52 -4 64 -22z m-184 -238 c18 -18 20 -33 20
-169 l0 -150 -27 -21 c-22 -17 -38 -20 -87 -18 l-61 3 -3 167 c-2 157 -1 169
18 188 28 28 112 28 140 0z m384 -2 c13 -18 16 -52 16 -168 0 -184 -1 -185
-102 -185 l-73 0 -3 164 c-3 204 0 211 88 211 50 0 61 -4 74 -22z"/>
</g>
</svg>
